<svg xmlns="http://www.w3.org/2000/svg" xmlns:xlink="http://www.w3.org/1999/xlink" width="500" zoomAndPan="magnify" viewBox="0 0 375 250" height="500" preserveAspectRatio="xMidYMid meet" version="1.0"><defs><g/><clipPath id="cd42fa9f51"><path d="M 26.027344 194 L 148.277344 194 L 148.277344 230.429688 L 26.027344 230.429688 Z M 26.027344 194 " clip-rule="nonzero"/></clipPath><clipPath id="593daf5852"><path d="M 39 144.929688 L 135 144.929688 L 135 213 L 39 213 Z M 39 144.929688 " clip-rule="nonzero"/></clipPath></defs><rect x="-37.5" width="450" fill="#ffffff" y="-37.499999" height="449.999989" fill-opacity="1"/><rect x="-37.5" width="450" fill="#ffffff" y="-37.499999" height="449.999989" fill-opacity="1"/><g clip-path="url(#cd42fa9f51)"><path fill="#54b17e" d="M 141.769531 221.265625 L 132.523438 221.265625 L 130.226562 218.027344 L 125.203125 224.507812 L 111.4375 207.835938 L 111.4375 225.023438 L 87.042969 194.589844 L 62.648438 225.023438 L 62.648438 207.835938 L 48.882812 224.507812 L 43.859375 218.027344 L 41.5625 221.265625 L 32.316406 221.265625 L 26.015625 230.050781 L 148.066406 230.050781 Z M 141.769531 221.265625 " fill-opacity="1" fill-rule="evenodd"/></g><g clip-path="url(#593daf5852)"><path fill="#1d4044" d="M 87.042969 144.949219 L 39.285156 211.542969 L 44.609375 208.632812 L 48.269531 212.296875 L 62.363281 194.871094 L 69.738281 203.582031 L 87.042969 181.488281 L 104.355469 203.582031 L 111.722656 194.871094 L 125.816406 212.296875 L 129.476562 208.632812 L 134.796875 211.542969 Z M 87.042969 144.949219 " fill-opacity="1" fill-rule="evenodd"/></g><g fill="#1d4044" fill-opacity="1"><g transform="translate(158.521429, 193.396233)"><g><path d="M 2.84375 -12.171875 C 4.289062 -13.546875 6.070312 -14.234375 8.1875 -14.234375 C 10.3125 -14.234375 12.097656 -13.546875 13.546875 -12.171875 C 14.992188 -10.804688 15.71875 -9.109375 15.71875 -7.078125 C 15.71875 -5.054688 14.992188 -3.351562 13.546875 -1.96875 C 12.097656 -0.59375 10.3125 0.09375 8.1875 0.09375 C 6.070312 0.09375 4.289062 -0.59375 2.84375 -1.96875 C 1.40625 -3.351562 0.6875 -5.054688 0.6875 -7.078125 C 0.6875 -9.109375 1.40625 -10.804688 2.84375 -12.171875 Z M 8.21875 -12.09375 C 6.8125 -12.09375 5.609375 -11.609375 4.609375 -10.640625 C 3.617188 -9.671875 3.125 -8.484375 3.125 -7.078125 C 3.125 -5.679688 3.625 -4.492188 4.625 -3.515625 C 5.632812 -2.535156 6.832031 -2.046875 8.21875 -2.046875 C 9.613281 -2.046875 10.800781 -2.535156 11.78125 -3.515625 C 12.769531 -4.492188 13.265625 -5.679688 13.265625 -7.078125 C 13.265625 -8.484375 12.769531 -9.671875 11.78125 -10.640625 C 10.800781 -11.609375 9.613281 -12.09375 8.21875 -12.09375 Z M 8.21875 -12.09375 "/></g></g></g><g fill="#1d4044" fill-opacity="1"><g transform="translate(183.026392, 193.396233)"><g><path d="M 1.859375 -14.171875 L 7.515625 -14.171875 C 9.296875 -14.171875 10.675781 -13.75 11.65625 -12.90625 C 12.632812 -12.0625 13.125 -10.867188 13.125 -9.328125 C 13.125 -7.722656 12.632812 -6.476562 11.65625 -5.59375 C 10.675781 -4.707031 9.296875 -4.265625 7.515625 -4.265625 L 4.25 -4.265625 L 4.25 0 L 1.859375 0 Z M 4.25 -12.03125 L 4.25 -6.421875 L 7.40625 -6.421875 C 9.6875 -6.421875 10.828125 -7.375 10.828125 -9.28125 C 10.828125 -11.113281 9.6875 -12.03125 7.40625 -12.03125 Z M 4.25 -12.03125 "/></g></g></g><g fill="#1d4044" fill-opacity="1"><g transform="translate(204.757102, 193.396233)"><g><path d="M 11.546875 -12.03125 L 7.046875 -12.03125 L 7.046875 0 L 4.65625 0 L 4.65625 -12.03125 L 0.1875 -12.03125 L 0.1875 -14.171875 L 11.546875 -14.171875 Z M 11.546875 -12.03125 "/></g></g></g><g fill="#1d4044" fill-opacity="1"><g transform="translate(224.584315, 193.396233)"><g><path d="M 4.25 0 L 1.859375 0 L 1.859375 -14.171875 L 4.25 -14.171875 Z M 4.25 0 "/></g></g></g><g fill="#1d4044" fill-opacity="1"><g transform="translate(238.8023, 193.396233)"><g><path d="M 6.21875 -5.359375 L 1.234375 -5.359375 L 1.234375 -6.96875 L 6.21875 -6.96875 Z M 6.21875 -5.359375 "/></g></g></g><g fill="#1d4044" fill-opacity="1"><g transform="translate(254.356782, 193.396233)"><g><path d="M 11.359375 -12.03125 L 4.25 -12.03125 L 4.25 -7.9375 L 10.6875 -7.9375 L 10.6875 -5.8125 L 4.25 -5.8125 L 4.25 0 L 1.859375 0 L 1.859375 -14.171875 L 11.375 -14.171875 Z M 11.359375 -12.03125 "/></g></g></g><g fill="#1d4044" fill-opacity="1"><g transform="translate(274.103006, 193.396233)"><g><path d="M 4.25 -2.171875 L 10.390625 -2.171875 L 10.390625 0 L 1.859375 0 L 1.859375 -14.171875 L 4.25 -14.171875 Z M 4.25 -2.171875 "/></g></g></g><g fill="#1d4044" fill-opacity="1"><g transform="translate(293.018967, 193.396233)"><g><path d="M 2.84375 -12.171875 C 4.289062 -13.546875 6.070312 -14.234375 8.1875 -14.234375 C 10.3125 -14.234375 12.097656 -13.546875 13.546875 -12.171875 C 14.992188 -10.804688 15.71875 -9.109375 15.71875 -7.078125 C 15.71875 -5.054688 14.992188 -3.351562 13.546875 -1.96875 C 12.097656 -0.59375 10.3125 0.09375 8.1875 0.09375 C 6.070312 0.09375 4.289062 -0.59375 2.84375 -1.96875 C 1.40625 -3.351562 0.6875 -5.054688 0.6875 -7.078125 C 0.6875 -9.109375 1.40625 -10.804688 2.84375 -12.171875 Z M 8.21875 -12.09375 C 6.8125 -12.09375 5.609375 -11.609375 4.609375 -10.640625 C 3.617188 -9.671875 3.125 -8.484375 3.125 -7.078125 C 3.125 -5.679688 3.625 -4.492188 4.625 -3.515625 C 5.632812 -2.535156 6.832031 -2.046875 8.21875 -2.046875 C 9.613281 -2.046875 10.800781 -2.535156 11.78125 -3.515625 C 12.769531 -4.492188 13.265625 -5.679688 13.265625 -7.078125 C 13.265625 -8.484375 12.769531 -9.671875 11.78125 -10.640625 C 10.800781 -11.609375 9.613281 -12.09375 8.21875 -12.09375 Z M 8.21875 -12.09375 "/></g></g></g><g fill="#1d4044" fill-opacity="1"><g transform="translate(317.523936, 193.396233)"><g><path d="M 16.4375 0 L 14 0 L 10.625 -11.0625 L 7.234375 0 L 4.765625 0 L 0.0625 -14.171875 L 2.625 -14.171875 L 6.078125 -2.65625 L 9.5 -14.15625 L 11.84375 -14.171875 L 15.28125 -2.65625 L 18.71875 -14.171875 L 21.1875 -14.171875 Z M 16.4375 0 "/></g></g></g><g fill="#215e57" fill-opacity="1"><g transform="translate(158.521429, 206.564444)"><g><path d="M 7.859375 0 L 6.828125 0 L 6.8125 -4.9375 L 4.734375 -0.6875 L 4 -0.6875 L 1.921875 -4.9375 L 1.921875 0 L 0.875 0 L 0.875 -6.609375 L 2.1875 -6.609375 L 4.375 -2.21875 L 6.546875 -6.609375 L 7.859375 -6.609375 Z M 7.859375 0 "/></g></g></g><g fill="#215e57" fill-opacity="1"><g transform="translate(170.078936, 206.564444)"><g><path d="M 5.140625 -1.484375 L 1.796875 -1.484375 L 1.171875 0 L 0.015625 0 L 2.921875 -6.609375 L 4.0625 -6.609375 L 6.953125 0 L 5.765625 0 Z M 4.703125 -2.484375 L 3.46875 -5.421875 L 2.21875 -2.484375 Z M 4.703125 -2.484375 "/></g></g></g><g fill="#215e57" fill-opacity="1"><g transform="translate(179.872381, 206.564444)"><g><path d="M 6.59375 0 L 5.5 0 L 1.984375 -4.734375 L 1.984375 0 L 0.875 0 L 0.875 -6.609375 L 1.96875 -6.609375 L 5.5 -1.859375 L 5.5 -6.609375 L 6.59375 -6.609375 Z M 6.59375 0 "/></g></g></g><g fill="#215e57" fill-opacity="1"><g transform="translate(190.175236, 206.564444)"><g><path d="M 5.140625 -1.484375 L 1.796875 -1.484375 L 1.171875 0 L 0.015625 0 L 2.921875 -6.609375 L 4.0625 -6.609375 L 6.953125 0 L 5.765625 0 Z M 4.703125 -2.484375 L 3.46875 -5.421875 L 2.21875 -2.484375 Z M 4.703125 -2.484375 "/></g></g></g><g fill="#215e57" fill-opacity="1"><g transform="translate(199.968683, 206.564444)"><g><path d="M 5.390625 -3.25 L 6.359375 -3.25 L 6.359375 -0.8125 C 6.015625 -0.550781 5.613281 -0.34375 5.15625 -0.1875 C 4.695312 -0.03125 4.242188 0.046875 3.796875 0.046875 C 2.816406 0.046875 1.992188 -0.273438 1.328125 -0.921875 C 0.660156 -1.566406 0.328125 -2.359375 0.328125 -3.296875 C 0.328125 -4.242188 0.664062 -5.035156 1.34375 -5.671875 C 2.019531 -6.316406 2.859375 -6.640625 3.859375 -6.640625 C 4.328125 -6.640625 4.785156 -6.554688 5.234375 -6.390625 C 5.679688 -6.222656 6.070312 -5.992188 6.40625 -5.703125 L 5.765625 -4.890625 C 5.222656 -5.390625 4.585938 -5.640625 3.859375 -5.640625 C 3.179688 -5.640625 2.609375 -5.410156 2.140625 -4.953125 C 1.679688 -4.503906 1.453125 -3.953125 1.453125 -3.296875 C 1.453125 -2.640625 1.6875 -2.082031 2.15625 -1.625 C 2.625 -1.175781 3.195312 -0.953125 3.875 -0.953125 C 4.382812 -0.953125 4.890625 -1.101562 5.390625 -1.40625 Z M 5.390625 -3.25 "/></g></g></g><g fill="#215e57" fill-opacity="1"><g transform="translate(209.865893, 206.564444)"><g><path d="M 5.59375 -5.609375 L 1.984375 -5.609375 L 1.984375 -3.828125 L 5.203125 -3.828125 L 5.203125 -2.828125 L 1.984375 -2.828125 L 1.984375 -1 L 5.703125 -1 L 5.703125 0 L 0.875 0 L 0.875 -6.609375 L 5.59375 -6.609375 Z M 5.59375 -5.609375 "/></g></g></g><g fill="#215e57" fill-opacity="1"><g transform="translate(218.885788, 206.564444)"><g><path d="M 7.859375 0 L 6.828125 0 L 6.8125 -4.9375 L 4.734375 -0.6875 L 4 -0.6875 L 1.921875 -4.9375 L 1.921875 0 L 0.875 0 L 0.875 -6.609375 L 2.1875 -6.609375 L 4.375 -2.21875 L 6.546875 -6.609375 L 7.859375 -6.609375 Z M 7.859375 0 "/></g></g></g><g fill="#215e57" fill-opacity="1"><g transform="translate(230.443296, 206.564444)"><g><path d="M 5.59375 -5.609375 L 1.984375 -5.609375 L 1.984375 -3.828125 L 5.203125 -3.828125 L 5.203125 -2.828125 L 1.984375 -2.828125 L 1.984375 -1 L 5.703125 -1 L 5.703125 0 L 0.875 0 L 0.875 -6.609375 L 5.59375 -6.609375 Z M 5.59375 -5.609375 "/></g></g></g><g fill="#215e57" fill-opacity="1"><g transform="translate(239.463191, 206.564444)"><g><path d="M 6.59375 0 L 5.5 0 L 1.984375 -4.734375 L 1.984375 0 L 0.875 0 L 0.875 -6.609375 L 1.96875 -6.609375 L 5.5 -1.859375 L 5.5 -6.609375 L 6.59375 -6.609375 Z M 6.59375 0 "/></g></g></g><g fill="#215e57" fill-opacity="1"><g transform="translate(249.766048, 206.564444)"><g><path d="M 5.375 -5.609375 L 3.28125 -5.609375 L 3.28125 0 L 2.171875 0 L 2.171875 -5.609375 L 0.078125 -5.609375 L 0.078125 -6.609375 L 5.375 -6.609375 Z M 5.375 -5.609375 "/></g></g></g><g fill="#215e57" fill-opacity="1"><g transform="translate(258.059558, 206.564444)"><g/></g></g><g fill="#215e57" fill-opacity="1"><g transform="translate(263.324916, 206.564444)"><g><path d="M 3.03125 -6.65625 C 3.894531 -6.65625 4.664062 -6.425781 5.34375 -5.96875 L 4.890625 -5 C 4.210938 -5.40625 3.566406 -5.609375 2.953125 -5.609375 C 2.617188 -5.609375 2.351562 -5.546875 2.15625 -5.421875 C 1.96875 -5.304688 1.875 -5.140625 1.875 -4.921875 C 1.875 -4.703125 1.960938 -4.515625 2.140625 -4.359375 C 2.316406 -4.203125 2.535156 -4.085938 2.796875 -4.015625 C 3.066406 -3.941406 3.351562 -3.847656 3.65625 -3.734375 C 3.96875 -3.628906 4.253906 -3.515625 4.515625 -3.390625 C 4.785156 -3.265625 5.003906 -3.070312 5.171875 -2.8125 C 5.347656 -2.550781 5.4375 -2.238281 5.4375 -1.875 C 5.4375 -1.289062 5.203125 -0.828125 4.734375 -0.484375 C 4.273438 -0.140625 3.675781 0.03125 2.9375 0.03125 C 2.4375 0.03125 1.953125 -0.0625 1.484375 -0.25 C 1.015625 -0.4375 0.601562 -0.691406 0.25 -1.015625 L 0.734375 -1.96875 C 1.066406 -1.664062 1.429688 -1.429688 1.828125 -1.265625 C 2.222656 -1.097656 2.601562 -1.015625 2.96875 -1.015625 C 3.351562 -1.015625 3.65625 -1.082031 3.875 -1.21875 C 4.09375 -1.363281 4.203125 -1.5625 4.203125 -1.8125 C 4.203125 -2.039062 4.113281 -2.226562 3.9375 -2.375 C 3.757812 -2.53125 3.535156 -2.644531 3.265625 -2.71875 C 3.003906 -2.789062 2.71875 -2.878906 2.40625 -2.984375 C 2.101562 -3.085938 1.816406 -3.195312 1.546875 -3.3125 C 1.285156 -3.425781 1.066406 -3.613281 0.890625 -3.875 C 0.710938 -4.132812 0.625 -4.445312 0.625 -4.8125 C 0.625 -5.375 0.84375 -5.820312 1.28125 -6.15625 C 1.726562 -6.488281 2.3125 -6.65625 3.03125 -6.65625 Z M 3.03125 -6.65625 "/></g></g></g><g fill="#215e57" fill-opacity="1"><g transform="translate(272.024062, 206.564444)"><g><path d="M 3.578125 -2.203125 L 3.578125 0 L 2.46875 0 L 2.46875 -2.15625 L 0.015625 -6.609375 L 1.125 -6.609375 L 3.015625 -3.390625 L 4.875 -6.609375 L 6 -6.609375 Z M 3.578125 -2.203125 "/></g></g></g><g fill="#215e57" fill-opacity="1"><g transform="translate(280.864714, 206.564444)"><g><path d="M 3.03125 -6.65625 C 3.894531 -6.65625 4.664062 -6.425781 5.34375 -5.96875 L 4.890625 -5 C 4.210938 -5.40625 3.566406 -5.609375 2.953125 -5.609375 C 2.617188 -5.609375 2.351562 -5.546875 2.15625 -5.421875 C 1.96875 -5.304688 1.875 -5.140625 1.875 -4.921875 C 1.875 -4.703125 1.960938 -4.515625 2.140625 -4.359375 C 2.316406 -4.203125 2.535156 -4.085938 2.796875 -4.015625 C 3.066406 -3.941406 3.351562 -3.847656 3.65625 -3.734375 C 3.96875 -3.628906 4.253906 -3.515625 4.515625 -3.390625 C 4.785156 -3.265625 5.003906 -3.070312 5.171875 -2.8125 C 5.347656 -2.550781 5.4375 -2.238281 5.4375 -1.875 C 5.4375 -1.289062 5.203125 -0.828125 4.734375 -0.484375 C 4.273438 -0.140625 3.675781 0.03125 2.9375 0.03125 C 2.4375 0.03125 1.953125 -0.0625 1.484375 -0.25 C 1.015625 -0.4375 0.601562 -0.691406 0.25 -1.015625 L 0.734375 -1.96875 C 1.066406 -1.664062 1.429688 -1.429688 1.828125 -1.265625 C 2.222656 -1.097656 2.601562 -1.015625 2.96875 -1.015625 C 3.351562 -1.015625 3.65625 -1.082031 3.875 -1.21875 C 4.09375 -1.363281 4.203125 -1.5625 4.203125 -1.8125 C 4.203125 -2.039062 4.113281 -2.226562 3.9375 -2.375 C 3.757812 -2.53125 3.535156 -2.644531 3.265625 -2.71875 C 3.003906 -2.789062 2.71875 -2.878906 2.40625 -2.984375 C 2.101562 -3.085938 1.816406 -3.195312 1.546875 -3.3125 C 1.285156 -3.425781 1.066406 -3.613281 0.890625 -3.875 C 0.710938 -4.132812 0.625 -4.445312 0.625 -4.8125 C 0.625 -5.375 0.84375 -5.820312 1.28125 -6.15625 C 1.726562 -6.488281 2.3125 -6.65625 3.03125 -6.65625 Z M 3.03125 -6.65625 "/></g></g></g><g fill="#215e57" fill-opacity="1"><g transform="translate(289.563859, 206.564444)"><g><path d="M 5.375 -5.609375 L 3.28125 -5.609375 L 3.28125 0 L 2.171875 0 L 2.171875 -5.609375 L 0.078125 -5.609375 L 0.078125 -6.609375 L 5.375 -6.609375 Z M 5.375 -5.609375 "/></g></g></g><g fill="#215e57" fill-opacity="1"><g transform="translate(297.857369, 206.564444)"><g><path d="M 5.59375 -5.609375 L 1.984375 -5.609375 L 1.984375 -3.828125 L 5.203125 -3.828125 L 5.203125 -2.828125 L 1.984375 -2.828125 L 1.984375 -1 L 5.703125 -1 L 5.703125 0 L 0.875 0 L 0.875 -6.609375 L 5.59375 -6.609375 Z M 5.59375 -5.609375 "/></g></g></g><g fill="#215e57" fill-opacity="1"><g transform="translate(306.877258, 206.564444)"><g><path d="M 7.859375 0 L 6.828125 0 L 6.8125 -4.9375 L 4.734375 -0.6875 L 4 -0.6875 L 1.921875 -4.9375 L 1.921875 0 L 0.875 0 L 0.875 -6.609375 L 2.1875 -6.609375 L 4.375 -2.21875 L 6.546875 -6.609375 L 7.859375 -6.609375 Z M 7.859375 0 "/></g></g></g></svg>